<?xml version="1.0" encoding="UTF-8" standalone="no"?>
<!DOCTYPE svg PUBLIC "-//W3C//DTD SVG 1.1//EN"
 "http://www.w3.org/Graphics/SVG/1.1/DTD/svg11.dtd">
<!-- Generated by graphviz version 12.2.1 (20241206.2353)
 -->
<!-- Title: G Pages: 1 -->
<svg width="852pt" height="544pt"
 viewBox="0.00 0.00 852.00 544.00" xmlns="http://www.w3.org/2000/svg" xmlns:xlink="http://www.w3.org/1999/xlink">
<g id="graph0" class="graph" transform="scale(1 1) rotate(0) translate(4 540)">
<title>G</title>
<polygon fill="#eeeeee" stroke="none" points="-4,4 -4,-540 848,-540 848,4 -4,4"/>
<g id="clust1" class="cluster">
<title>cluster_inputs</title>
<polygon fill="#eeeeee" stroke="black" stroke-dasharray="5,2" points="8,-450.5 8,-528 836,-528 836,-450.5 8,-450.5"/>
<text text-anchor="middle" x="781.5" y="-457.7" font-family="Times,serif" font-size="14.00">Workflow Inputs</text>
</g>
<g id="clust2" class="cluster">
<title>cluster_outputs</title>
<polygon fill="#eeeeee" stroke="black" stroke-dasharray="5,2" points="246,-8 246,-85.5 728,-85.5 728,-8 246,-8"/>
<text text-anchor="middle" x="669" y="-15.2" font-family="Times,serif" font-size="14.00">Workflow Outputs</text>
</g>
<!-- variant_calling -->
<g id="node1" class="node">
<title>variant_calling</title>
<polygon fill="lightgoldenrodyellow" stroke="black" points="422.25,-187 422.25,-223 679.75,-223 679.75,-187 422.25,-187"/>
<text text-anchor="middle" x="551" y="-199.95" font-family="Times,serif" font-size="14.00">Variant Calling for Malaria Drug Resistance</text>
</g>
<!-- haplotype_analysis -->
<g id="node2" class="node">
<title>haplotype_analysis</title>
<polygon fill="lightgoldenrodyellow" stroke="black" points="591.25,-114 591.25,-150 806.75,-150 806.75,-114 591.25,-114"/>
<text text-anchor="middle" x="699" y="-126.95" font-family="Times,serif" font-size="14.00">Drug Resistance Haplotype Analysis</text>
</g>
<!-- variant_calling&#45;&gt;haplotype_analysis -->
<g id="edge1" class="edge">
<title>variant_calling&#45;&gt;haplotype_analysis</title>
<path fill="none" stroke="black" d="M587.2,-186.63C606.82,-177.22 631.29,-165.48 652.33,-155.39"/>
<polygon fill="black" stroke="black" points="653.79,-158.57 661.29,-151.09 650.76,-152.26 653.79,-158.57"/>
</g>
<!-- variants_vcf -->
<g id="node17" class="node">
<title>variants_vcf</title>
<polygon fill="#94ddf4" stroke="black" points="479.62,-41 479.62,-77 562.38,-77 562.38,-41 479.62,-41"/>
<text text-anchor="middle" x="521" y="-53.95" font-family="Times,serif" font-size="14.00">variants_vcf</text>
</g>
<!-- variant_calling&#45;&gt;variants_vcf -->
<g id="edge18" class="edge">
<title>variant_calling&#45;&gt;variants_vcf</title>
<path fill="none" stroke="black" d="M547.38,-186.63C542.31,-162.3 533.04,-117.8 526.95,-88.56"/>
<polygon fill="black" stroke="black" points="530.41,-87.99 524.94,-78.91 523.55,-89.42 530.41,-87.99"/>
</g>
<!-- drug_resistance_report -->
<g id="node15" class="node">
<title>drug_resistance_report</title>
<polygon fill="#94ddf4" stroke="black" points="580.12,-41 580.12,-77 719.88,-77 719.88,-41 580.12,-41"/>
<text text-anchor="middle" x="650" y="-53.95" font-family="Times,serif" font-size="14.00">drug_resistance_report</text>
</g>
<!-- haplotype_analysis&#45;&gt;drug_resistance_report -->
<g id="edge16" class="edge">
<title>haplotype_analysis&#45;&gt;drug_resistance_report</title>
<path fill="none" stroke="black" d="M687.14,-113.81C681.48,-105.62 674.58,-95.62 668.28,-86.48"/>
<polygon fill="black" stroke="black" points="671.17,-84.52 662.61,-78.27 665.41,-88.49 671.17,-84.52"/>
</g>
<!-- quality_filter -->
<g id="node3" class="node">
<title>quality_filter</title>
<polygon fill="lightgoldenrodyellow" stroke="black" points="71.88,-406 71.88,-442 324.12,-442 324.12,-406 71.88,-406"/>
<text text-anchor="middle" x="198" y="-418.95" font-family="Times,serif" font-size="14.00">Quality Filter for Gzipped Nanopore Reads</text>
</g>
<!-- minimap_align -->
<g id="node4" class="node">
<title>minimap_align</title>
<polygon fill="lightgoldenrodyellow" stroke="black" points="379.62,-333 379.62,-369 630.38,-369 630.38,-333 379.62,-333"/>
<text text-anchor="middle" x="505" y="-345.95" font-family="Times,serif" font-size="14.00">Minimap2 Alignment for Malaria Markers</text>
</g>
<!-- quality_filter&#45;&gt;minimap_align -->
<g id="edge2" class="edge">
<title>quality_filter&#45;&gt;minimap_align</title>
<path fill="none" stroke="black" d="M273.49,-405.54C317.37,-395.39 372.82,-382.57 418.46,-372.02"/>
<polygon fill="black" stroke="black" points="419.1,-375.46 428.06,-369.79 417.53,-368.64 419.1,-375.46"/>
</g>
<!-- filtered_fastq -->
<g id="node16" class="node">
<title>filtered_fastq</title>
<polygon fill="#94ddf4" stroke="black" points="254,-41 254,-77 342,-77 342,-41 254,-41"/>
<text text-anchor="middle" x="298" y="-53.95" font-family="Times,serif" font-size="14.00">filtered_fastq</text>
</g>
<!-- quality_filter&#45;&gt;filtered_fastq -->
<g id="edge17" class="edge">
<title>quality_filter&#45;&gt;filtered_fastq</title>
<path fill="none" stroke="black" d="M206.7,-405.76C219.27,-379.23 241,-326.49 241,-279 241,-279 241,-279 241,-204 241,-160.66 263.6,-114.8 280.34,-86.78"/>
<polygon fill="black" stroke="black" points="283.12,-88.94 285.39,-78.59 277.16,-85.27 283.12,-88.94"/>
</g>
<!-- sam_to_bam -->
<g id="node5" class="node">
<title>sam_to_bam</title>
<polygon fill="lightgoldenrodyellow" stroke="black" points="371.25,-260 371.25,-296 532.75,-296 532.75,-260 371.25,-260"/>
<text text-anchor="middle" x="452" y="-272.95" font-family="Times,serif" font-size="14.00">SAM to BAM Conversion</text>
</g>
<!-- minimap_align&#45;&gt;sam_to_bam -->
<g id="edge3" class="edge">
<title>minimap_align&#45;&gt;sam_to_bam</title>
<path fill="none" stroke="black" d="M492.17,-332.81C485.99,-324.53 478.43,-314.41 471.55,-305.19"/>
<polygon fill="black" stroke="black" points="474.4,-303.16 465.62,-297.24 468.79,-307.35 474.4,-303.16"/>
</g>
<!-- sam_to_bam&#45;&gt;variant_calling -->
<g id="edge4" class="edge">
<title>sam_to_bam&#45;&gt;variant_calling</title>
<path fill="none" stroke="black" d="M476.22,-259.63C488.68,-250.69 504.07,-239.66 517.64,-229.92"/>
<polygon fill="black" stroke="black" points="519.37,-232.99 525.46,-224.32 515.29,-227.3 519.37,-232.99"/>
</g>
<!-- alignment_bam -->
<g id="node14" class="node">
<title>alignment_bam</title>
<polygon fill="#94ddf4" stroke="black" points="360.25,-41 360.25,-77 461.75,-77 461.75,-41 360.25,-41"/>
<text text-anchor="middle" x="411" y="-53.95" font-family="Times,serif" font-size="14.00">alignment_bam</text>
</g>
<!-- sam_to_bam&#45;&gt;alignment_bam -->
<g id="edge15" class="edge">
<title>sam_to_bam&#45;&gt;alignment_bam</title>
<path fill="none" stroke="black" d="M435.17,-259.78C426.79,-250 417.5,-237.02 413,-223.5 397.92,-178.16 401.81,-121.75 406.24,-88.44"/>
<polygon fill="black" stroke="black" points="409.67,-89.17 407.64,-78.77 402.74,-88.16 409.67,-89.17"/>
</g>
<!-- marker_id -->
<g id="node6" class="node">
<title>marker_id</title>
<polygon fill="#94ddf4" stroke="black" points="755.88,-483.5 755.88,-519.5 828.12,-519.5 828.12,-483.5 755.88,-483.5"/>
<text text-anchor="middle" x="792" y="-496.45" font-family="Times,serif" font-size="14.00">marker_id</text>
</g>
<!-- marker_id&#45;&gt;haplotype_analysis -->
<g id="edge5" class="edge">
<title>marker_id&#45;&gt;haplotype_analysis</title>
<path fill="none" stroke="black" d="M788.92,-483.19C784.27,-455.55 776,-399.71 776,-352 776,-352 776,-352 776,-277 776,-231.41 745.61,-186.27 723.02,-159.01"/>
<polygon fill="black" stroke="black" points="725.86,-156.94 716.69,-151.62 720.54,-161.49 725.86,-156.94"/>
</g>
<!-- snp_positions -->
<g id="node7" class="node">
<title>snp_positions</title>
<polygon fill="#94ddf4" stroke="black" points="647.88,-483.5 647.88,-519.5 738.12,-519.5 738.12,-483.5 647.88,-483.5"/>
<text text-anchor="middle" x="693" y="-496.45" font-family="Times,serif" font-size="14.00">snp_positions</text>
</g>
<!-- snp_positions&#45;&gt;haplotype_analysis -->
<g id="edge6" class="edge">
<title>snp_positions&#45;&gt;haplotype_analysis</title>
<path fill="none" stroke="black" d="M695.89,-483.18C700.25,-455.53 708,-399.68 708,-352 708,-352 708,-352 708,-277 708,-236.89 704.48,-190.62 701.84,-161.59"/>
<polygon fill="black" stroke="black" points="705.34,-161.4 700.92,-151.77 698.37,-162.06 705.34,-161.4"/>
</g>
<!-- reference_fasta -->
<g id="node8" class="node">
<title>reference_fasta</title>
<polygon fill="#94ddf4" stroke="black" points="531.75,-483.5 531.75,-519.5 630.25,-519.5 630.25,-483.5 531.75,-483.5"/>
<text text-anchor="middle" x="581" y="-496.45" font-family="Times,serif" font-size="14.00">reference_fasta</text>
</g>
<!-- reference_fasta&#45;&gt;variant_calling -->
<g id="edge8" class="edge">
<title>reference_fasta&#45;&gt;variant_calling</title>
<path fill="none" stroke="black" d="M594.42,-483.44C616.52,-453.2 656.45,-388.15 639,-332.5 626.72,-293.34 597.56,-255.69 576.16,-231.8"/>
<polygon fill="black" stroke="black" points="578.75,-229.45 569.41,-224.46 573.6,-234.19 578.75,-229.45"/>
</g>
<!-- reference_fasta&#45;&gt;minimap_align -->
<g id="edge7" class="edge">
<title>reference_fasta&#45;&gt;minimap_align</title>
<path fill="none" stroke="black" d="M572.13,-483.17C559.03,-457.58 534.39,-409.43 518.88,-379.12"/>
<polygon fill="black" stroke="black" points="522.17,-377.87 514.5,-370.56 515.94,-381.06 522.17,-377.87"/>
</g>
<!-- threads -->
<g id="node9" class="node">
<title>threads</title>
<polygon fill="#94ddf4" stroke="black" points="458.5,-483.5 458.5,-519.5 513.5,-519.5 513.5,-483.5 458.5,-483.5"/>
<text text-anchor="middle" x="486" y="-496.45" font-family="Times,serif" font-size="14.00">threads</text>
</g>
<!-- threads&#45;&gt;minimap_align -->
<g id="edge9" class="edge">
<title>threads&#45;&gt;minimap_align</title>
<path fill="none" stroke="black" d="M488.22,-483.17C491.45,-457.91 497.49,-410.68 501.38,-380.32"/>
<polygon fill="black" stroke="black" points="504.81,-381.08 502.61,-370.72 497.86,-380.19 504.81,-381.08"/>
</g>
<!-- threads&#45;&gt;sam_to_bam -->
<g id="edge10" class="edge">
<title>threads&#45;&gt;sam_to_bam</title>
<path fill="none" stroke="black" d="M474.19,-483.42C467.17,-473.56 457.92,-461.06 449,-450.5 416.73,-412.33 389.69,-415.85 371,-369.5 364.85,-354.25 363.21,-346.98 371,-332.5 377.68,-320.09 388.64,-310.07 400.37,-302.22"/>
<polygon fill="black" stroke="black" points="401.9,-305.38 408.59,-297.17 398.24,-299.42 401.9,-305.38"/>
</g>
<!-- raw_fastq -->
<g id="node10" class="node">
<title>raw_fastq</title>
<polygon fill="#94ddf4" stroke="black" points="16.38,-483.5 16.38,-519.5 85.62,-519.5 85.62,-483.5 16.38,-483.5"/>
<text text-anchor="middle" x="51" y="-496.45" font-family="Times,serif" font-size="14.00">raw_fastq</text>
</g>
<!-- raw_fastq&#45;&gt;quality_filter -->
<g id="edge11" class="edge">
<title>raw_fastq&#45;&gt;quality_filter</title>
<path fill="none" stroke="black" d="M62.08,-483.22C69.98,-472.27 81.56,-458.66 95,-450.5 96.86,-449.37 98.77,-448.29 100.71,-447.26"/>
<polygon fill="black" stroke="black" points="101.85,-450.6 109.37,-443.14 98.84,-444.28 101.85,-450.6"/>
</g>
<!-- max_read_length -->
<g id="node11" class="node">
<title>max_read_length</title>
<polygon fill="#94ddf4" stroke="black" points="103.75,-483.5 103.75,-519.5 214.25,-519.5 214.25,-483.5 103.75,-483.5"/>
<text text-anchor="middle" x="159" y="-496.45" font-family="Times,serif" font-size="14.00">max_read_length</text>
</g>
<!-- max_read_length&#45;&gt;quality_filter -->
<g id="edge12" class="edge">
<title>max_read_length&#45;&gt;quality_filter</title>
<path fill="none" stroke="black" d="M167.85,-483.37C172.55,-474.26 178.45,-462.85 183.78,-452.53"/>
<polygon fill="black" stroke="black" points="186.88,-454.16 188.36,-443.67 180.66,-450.95 186.88,-454.16"/>
</g>
<!-- min_read_length -->
<g id="node12" class="node">
<title>min_read_length</title>
<polygon fill="#94ddf4" stroke="black" points="231.88,-483.5 231.88,-519.5 340.12,-519.5 340.12,-483.5 231.88,-483.5"/>
<text text-anchor="middle" x="286" y="-496.45" font-family="Times,serif" font-size="14.00">min_read_length</text>
</g>
<!-- min_read_length&#45;&gt;quality_filter -->
<g id="edge13" class="edge">
<title>min_read_length&#45;&gt;quality_filter</title>
<path fill="none" stroke="black" d="M266.03,-483.37C254.41,-473.4 239.57,-460.66 226.71,-449.63"/>
<polygon fill="black" stroke="black" points="229.21,-447.17 219.34,-443.31 224.65,-452.48 229.21,-447.17"/>
</g>
<!-- min_quality -->
<g id="node13" class="node">
<title>min_quality</title>
<polygon fill="#94ddf4" stroke="black" points="358,-483.5 358,-519.5 440,-519.5 440,-483.5 358,-483.5"/>
<text text-anchor="middle" x="399" y="-496.45" font-family="Times,serif" font-size="14.00">min_quality</text>
</g>
<!-- min_quality&#45;&gt;quality_filter -->
<g id="edge14" class="edge">
<title>min_quality&#45;&gt;quality_filter</title>
<path fill="none" stroke="black" d="M386.52,-483.38C377.41,-472.19 364.06,-458.27 349,-450.5 344.49,-448.17 339.82,-446.05 335.03,-444.12"/>
<polygon fill="black" stroke="black" points="336.38,-440.89 325.79,-440.7 333.96,-447.46 336.38,-440.89"/>
</g>
</g>
</svg>
